# xmcd
#
# Track frame offsets: 
#        150
#        17170
#        32515
#        48055
#        63860
#        76502
#        93742
#        110460
#        125787
#        143925
#
# Disc length: 2164 seconds
#
# Revision: 2
# Processed by: cddbd v1.5.1PL0 Copyright (c) Steve Scherf et al.
# Submitted via: ExactAudioCopy v0.95b1
#
DISCID=7a08720a
DTITLE=Billy Ray Cyrus - Some Gave All
DYEAR=1900
DGENRE=Contemporary Country
TTITLE0=Could've Been Me
TTITLE1=Achy Breaky Heart
TTITLE2=She's Not Cryin' Anymore
TTITLE3=Wher'm I Gonna Live
TTITLE4=These Boots Are Made For Walkin'
TTITLE5=Someday, Somewhere, Somehow
TTITLE6=Never Thought I'd Fall In Love With You
TTITLE7=Ain't No Good Goodbye
TTITLE8=I'm So Miserable
TTITLE9=Some Gave All
EXTD=
EXTT0=
EXTT1=
EXTT2=
EXTT3=
EXTT4=
EXTT5=
EXTT6=
EXTT7=
EXTT8=
EXTT9=
PLAYORDER=
